<svg width="24" height="24" viewBox="0 0 24 24" fill="none" xmlns="http://www.w3.org/2000/svg">
<path d="M10 4H4C2.89 4 2 4.89 2 6V18C2 19.097 2.903 20 4 20H20C21.097 20 22 19.097 22 18V8C22 6.89 21.1 6 20 6H12L10 4Z" fill="#CA1818"/>
<path d="M14.7226 18.7583L20.2354 13.2454C20.7142 13.4433 21.2396 13.5005 21.7498 13.4104C22.26 13.3203 22.734 13.0865 23.1161 12.7365C23.4981 12.3865 23.7724 11.9348 23.9068 11.4344C24.0412 10.934 24.03 10.4056 23.8747 9.91133L22.1676 11.6184L20.3816 9.83233L22.0886 8.12527C21.5943 7.96995 21.066 7.95883 20.5656 8.09321C20.0652 8.22759 19.6135 8.50189 19.2634 8.88394C18.9134 9.26599 18.6797 9.73993 18.5895 10.2502C18.4994 10.7604 18.5566 11.2857 18.7546 11.7646L13.2418 17.2775C12.8162 17.1265 12.357 17.0971 11.9157 17.1925C11.4744 17.288 11.0684 17.5046 10.7433 17.8179C10.4182 18.1313 10.1869 18.5291 10.0754 18.9666C9.96377 19.4041 9.97632 19.864 10.1116 20.2948L11.6349 18.7715L13.2285 20.3651L11.7052 21.8884C12.136 22.0237 12.5959 22.0362 13.0335 21.9246C13.471 21.8131 13.8688 21.5818 14.1821 21.2567C14.4955 20.9316 14.7121 20.5256 14.8075 20.0843C14.903 19.643 14.8736 19.1838 14.7226 18.7583V18.7583Z" fill="#ECBFBF"/>
</svg>
