<svg width="24" height="24" viewBox="0 0 24 24" fill="none" xmlns="http://www.w3.org/2000/svg">
<path d="M19 20H4C2.89 20 2 19.1 2 18V6C2 4.89 2.89 4 4 4H10L12 6H19C20.097 6 21 6.903 21 8H4V18L6.14 10H23.21L20.93 18.5C20.7 19.37 19.92 20 19 20Z" fill="#CA1818"/>
<path d="M13.7226 17.7583L19.2354 12.2454C19.7142 12.4433 20.2396 12.5005 20.7498 12.4104C21.26 12.3203 21.734 12.0865 22.116 11.7365C22.4981 11.3865 22.7724 10.9348 22.9068 10.4344C23.0412 9.93398 23.03 9.40564 22.8747 8.91133L21.1676 10.6184L19.3816 8.83233L21.0886 7.12527C20.5943 6.96995 20.066 6.95883 19.5656 7.09321C19.0652 7.22759 18.6135 7.50189 18.2634 7.88394C17.9134 8.26599 17.6797 8.73993 17.5895 9.25016C17.4994 9.76039 17.5566 10.2857 17.7546 10.7646L12.2418 16.2775C11.8162 16.1265 11.357 16.0971 10.9157 16.1925C10.4744 16.288 10.0684 16.5046 9.74333 16.8179C9.41825 17.1313 9.18694 17.5291 9.07535 17.9666C8.96377 18.4041 8.97632 18.864 9.11162 19.2948L10.6349 17.7715L12.2285 19.3651L10.7052 20.8884C11.136 21.0237 11.5959 21.0362 12.0335 20.9246C12.471 20.8131 12.8688 20.5818 13.1821 20.2567C13.4955 19.9316 13.7121 19.5256 13.8075 19.0843C13.903 18.643 13.8736 18.1838 13.7226 17.7583Z" fill="#ECBFBF"/>
</svg>
